<svg xmlns="http://www.w3.org/2000/svg" viewBox="0 0 360 80" role="img" aria-label="CraversBest">
  <g>
    <rect x="8" y="8" width="64" height="64" rx="16" fill="#D62F27"/>
    <path d="M40 16 C 41 26, 49 30, 50 40 C 51 51, 45 60, 40 60 C 35 60, 29 53, 30 42 C 30.6 35, 35 34, 35 28 C 38 31, 38 23, 40 16 Z" fill="#FFF7EE"/>
    <path d="M40 34 C 41 39, 45 42, 45 48 C 45 54, 42 57, 40 57 C 38 57, 34.5 54, 35 48 C 35.3 44, 38 43, 38 39 C 39 41, 39 37, 40 34 Z" fill="#F5A623"/>
  </g>
  <text x="90" y="52" font-family="'Poppins','Segoe UI',system-ui,-apple-system,sans-serif" font-weight="700" font-size="38" letter-spacing="-0.5">
    <tspan fill="#231A15">Cravers</tspan><tspan fill="#D62F27">Best</tspan>
  </text>
</svg>
